HIERARCHY
ROOT hip
{
  OFFSET 0 0 0
  CHANNELS 6 Xposition Yposition Zposition Zrotation Yrotation Xrotation
  JOINT abdomen
  {
    OFFSET 0 20.6881 -0.73152
    CHANNELS 3 Zrotation Xrotation Yrotation
    JOINT chest
    {
      OFFSET 0 11.7043 -0.48768
      CHANNELS 3 Zrotation Xrotation Yrotation
      JOINT neck
      {
        OFFSET 0 22.1894 -2.19456
        CHANNELS 3 Zrotation Xrotation Yrotation
        JOINT head
        {
          OFFSET -0.24384 7.07133 1.2192
          CHANNELS 3 Zrotation Xrotation Yrotation
          JOINT leftEye
          {
            OFFSET 4.14528 8.04674 8.04672
            CHANNELS 3 Zrotation Xrotation Yrotation
            End Site
            {
              OFFSET 1 0 0
            }
          }
          JOINT rightEye
          {
            OFFSET -3.6576 8.04674 8.04672
            CHANNELS 3 Zrotation Xrotation Yrotation
            End Site
            {
              OFFSET 1 0 0
            }
          }
        }
      }
      JOINT rCollar
      {
        OFFSET -2.68224 19.2634 -4.8768
        CHANNELS 3 Zrotation Xrotation Yrotation
        JOINT rShldr
        {
          OFFSET -8.77824 -1.95073 1.46304
          CHANNELS 3 Zrotation Xrotation Yrotation
          JOINT rForeArm
          {
            OFFSET -28.1742 -1.7115 0.48768
            CHANNELS 3 Zrotation Xrotation Yrotation
            JOINT rHand
            {
              OFFSET -22.5879 0.773209 7.07136
              CHANNELS 3 Zrotation Xrotation Yrotation
              JOINT rThumb1
              {
                OFFSET -1.2192 -0.487915 3.41376
                CHANNELS 3 Zrotation Xrotation Yrotation
                JOINT rThumb2
                {
                  OFFSET -3.37035 -0.52449 3.41376
                  CHANNELS 3 Zrotation Xrotation Yrotation
                  End Site
                  {
                    OFFSET -1.78271 -1.18214 1.43049
                  }
                }
              }
              JOINT rIndex1
              {
                OFFSET -7.75947 0.938293 5.60832
                CHANNELS 3 Zrotation Xrotation Yrotation
                JOINT rIndex2
                {
                  OFFSET -2.54057 -0.884171 1.56538
                  CHANNELS 3 Zrotation Xrotation Yrotation
                  End Site
                  {
                    OFFSET -1.62519 -0.234802 1.16502
                  }
                }
              }
              JOINT rMid1
              {
                OFFSET -8.24714 1.18213 3.41376
                CHANNELS 3 Zrotation Xrotation Yrotation
                JOINT rMid2
                {
                  OFFSET -3.10165 -0.590103 1.0647
                  CHANNELS 3 Zrotation Xrotation Yrotation
                  End Site
                  {
                    OFFSET -2.48547 -0.328903 0.83742
                  }
                }
              }
              JOINT rRing1
              {
                OFFSET -8.82822 0.546677 1.51678
                CHANNELS 3 Zrotation Xrotation Yrotation
                JOINT rRing2
                {
                  OFFSET -2.60934 -0.819778 -0.0198488
                  CHANNELS 3 Zrotation Xrotation Yrotation
                  End Site
                  {
                    OFFSET -2.33842 -0.294052 0.168128
                  }
                }
              }
              JOINT rPinky1
              {
                OFFSET -8.27202 -0.0477905 -0.4584
                CHANNELS 3 Zrotation Xrotation Yrotation
                JOINT rPinky2
                {
                  OFFSET -1.82734 -0.647385 -0.700984
                  CHANNELS 3 Zrotation Xrotation Yrotation
                  End Site
                  {
                    OFFSET -1.69225 -0.51767 -0.607171
                  }
                }
              }
            }
          }
        }
      }
      JOINT lCollar
      {
        OFFSET 2.68224 19.2634 -4.8768
        CHANNELS 3 Zrotation Xrotation Yrotation
        JOINT lShldr
        {
          OFFSET 8.77824 -1.95073 1.46304
          CHANNELS 3 Zrotation Xrotation Yrotation
          JOINT lForeArm
          {
            OFFSET 28.1742 -1.7115 0.48768
            CHANNELS 3 Zrotation Xrotation Yrotation
            JOINT lHand
            {
              OFFSET 22.5879 0.773209 7.07136
              CHANNELS 3 Zrotation Xrotation Yrotation
              JOINT lThumb1
              {
                OFFSET 1.2192 -0.487915 3.41376
                CHANNELS 3 Zrotation Xrotation Yrotation
                JOINT lThumb2
                {
                  OFFSET 3.37035 -0.52449 3.41376
                  CHANNELS 3 Zrotation Xrotation Yrotation
                  End Site
                  {
                    OFFSET 1.78271 -1.18214 1.43049
                  }
                }
              }
              JOINT lIndex1
              {
                OFFSET 7.75947 0.938293 5.60832
                CHANNELS 3 Zrotation Xrotation Yrotation
                JOINT lIndex2
                {
                  OFFSET 2.54057 -0.884171 1.56538
                  CHANNELS 3 Zrotation Xrotation Yrotation
                  End Site
                  {
                    OFFSET 1.62519 -0.234802 1.16502
                  }
                }
              }
              JOINT lMid1
              {
                OFFSET 8.24714 1.18213 3.41376
                CHANNELS 3 Zrotation Xrotation Yrotation
                JOINT lMid2
                {
                  OFFSET 3.10165 -0.590103 1.0647
                  CHANNELS 3 Zrotation Xrotation Yrotation
                  End Site
                  {
                    OFFSET 2.48547 -0.328903 0.83742
                  }
                }
              }
              JOINT lRing1
              {
                OFFSET 8.82822 0.546677 1.51678
                CHANNELS 3 Zrotation Xrotation Yrotation
                JOINT lRing2
                {
                  OFFSET 2.60934 -0.819778 -0.0198488
                  CHANNELS 3 Zrotation Xrotation Yrotation
                  End Site
                  {
                    OFFSET 2.33842 -0.294052 0.168128
                  }
                }
              }
              JOINT lPinky1
              {
                OFFSET 8.27202 -0.0477905 -0.4584
                CHANNELS 3 Zrotation Xrotation Yrotation
                JOINT lPinky2
                {
                  OFFSET 1.82734 -0.647385 -0.700984
                  CHANNELS 3 Zrotation Xrotation Yrotation
                  End Site
                  {
                    OFFSET 1.69225 -0.51767 -0.607171
                  }
                }
              }
            }
          }
        }
      }
    }
  }
  JOINT rButtock
  {
    OFFSET -8.77824 4.35084 1.2192
    CHANNELS 3 Zrotation Xrotation Yrotation
    JOINT rThigh
    {
      OFFSET 0 -1.70687 -2.19456
      CHANNELS 3 Zrotation Xrotation Yrotation
      JOINT rShin
      {
        OFFSET 0 -36.8199 0.73152
        CHANNELS 3 Zrotation Xrotation Yrotation
        JOINT rFoot
        {
          OFFSET 0.73152 -45.1104 -5.12064
          CHANNELS 3 Zrotation Xrotation Yrotation
          End Site
          {
            OFFSET -1.1221 -3.69964 12.103
          }
        }
      }
    }
  }
  JOINT lButtock
  {
    OFFSET 8.77824 4.35084 1.2192
    CHANNELS 3 Zrotation Xrotation Yrotation
    JOINT lThigh
    {
      OFFSET 0 -1.70687 -2.19456
      CHANNELS 3 Zrotation Xrotation Yrotation
      JOINT lShin
      {
        OFFSET 0 -36.8199 0.73152
        CHANNELS 3 Zrotation Xrotation Yrotation
        JOINT lFoot
        {
          OFFSET -0.73152 -45.1104 -5.12064
          CHANNELS 3 Zrotation Xrotation Yrotation
          End Site
          {
            OFFSET 1.1221 -3.69964 12.103
          }
        }
      }
    }
  }
}
MOTION
Frames:	4
Frame Time:	0.03333
-0.006097651381528883 35.619327238589776 0.007797261247164576 -2.8514957427978516 6.370880603790283 4.941417694091797 -2.4105019569396973 14.679084777832031 3.9659218788146973 2.677086591720581 -9.678586959838867 1.2712538242340088 -5.0186448097229 15.404874801635742 -3.4900667667388916 8.958999633789062 -26.274356842041016 -5.0902276039123535 -0.05612818896770477 -0.0236713495105505 -0.0903240218758583 -0.009662744589149952 -0.015606931410729885 -0.018260978162288666 0.01196602825075388 0.00930724386125803 0.01737750507891178 46.88283157348633 35.976463317871094 17.279417037963867 -28.107534408569336 -32.01051712036133 62.79568862915039 -1.514823079109192 -10.829668045043945 -1.6341230869293213 -0.036189015954732895 0.059447962790727615 -0.028163669630885124 0.03709575533866882 0.04175753518939018 0.015771809965372086 0.06871571391820908 -0.07996516674757004 -0.03648540750145912 7.776226997375488 5.458873271942139 0.3875010907649994 0.05835912004113197 -0.01244040671736002 -0.022282753139734268 2.886497974395752 1.0079436302185059 0.02448839135468006 0.013435347937047482 0.09178715199232101 -0.028275467455387115 10.325963020324707 0.7331206798553467 0.042988311499357224 -0.059911035001277924 -0.02756357192993164 -0.0070411949418485165 2.283494472503662 -0.7542243003845215 -0.26037487387657166 0.03606685623526573 -0.022709235548973083 -0.033595506101846695 -52.80747985839844 39.6751823425293 -29.17020034790039 27.602872848510742 -30.354833602905273 -58.62575912475586 1.8416208028793335 -12.970048904418945 1.9133036136627197 -0.009229091927409172 -0.009773059748113155 -0.012657987885177135 0.019943779334425926 0.023723388090729713 0.003463377943262458 0.04580586776137352 0.007009580265730619 0.032443586736917496 -7.796956539154053 5.479773998260498 -0.36100104451179504 -0.035730745643377304 -0.034059979021549225 -0.0233304500579834 -2.9104957580566406 0.9676026701927185 -0.061207909137010574 0.010903343558311462 0.04862182214856148 0.04677446186542511 -10.369029998779297 0.7608968615531921 -0.00619895663112402 -0.013227589428424835 -0.05807887017726898 -0.028886334970593452 -2.2407355308532715 -0.7590102553367615 0.24310749769210815 -0.01302444189786911 -0.10783842951059341 0.03370406851172447 -26.961454391479492 -38.237548828125 -23.00956916809082 -1.5854246616363525 64.65015411376953 2.763566017150879 -4.803663730621338 -10.730502128601074 -10.400046348571777 -0.01243062037974596 -0.016052942723035812 -0.02739378996193409 33.259925842285156 -37.8649787902832 26.542686462402344 1.884440302848816 66.00802612304688 -2.948598861694336 5.189875602722168 -10.508184432983398 13.968244552612305
0.03721535290987229 35.81992989451305 0.15195095166100922 -2.8468172550201416 6.824952125549316 4.175267696380615 -2.370316743850708 14.698784828186035 3.7808518409729004 2.6568777561187744 -9.665996551513672 1.044113278388977 -4.965536117553711 15.395973205566406 -3.148591995239258 8.858643531799316 -25.95701789855957 -4.646911144256592 0.015761643648147583 0.032299820333719254 0.04422902688384056 0.015294743701815605 -0.08089033514261246 -0.004587637726217508 0.008537556044757366 0.057556312531232834 0.053996555507183075 46.42543029785156 36.20650100708008 18.16460609436035 -28.165136337280273 -32.35104751586914 62.632659912109375 -1.7701356410980225 -11.65099048614502 -1.6235805749893188 -0.10400918126106262 -0.06322815269231796 0.0037918253801763058 -0.0198099073022604 0.008900408633053303 0.038741495460271835 -0.07774001359939575 0.13046374917030334 0.0706326961517334 7.530228614807129 5.488504886627197 0.46075379848480225 0.0642581656575203 0.017457177862524986 0.017392968758940697 2.7852730751037598 0.9554188847541809 0.09650208801031113 -0.040541816502809525 -0.10930328071117401 -0.0251350998878479 10.120607376098633 0.7054075598716736 0.07684904336929321 0.13246317207813263 0.09889491647481918 -0.014325532130897045 2.230725049972534 -0.688090443611145 -0.25497639179229736 0.03546934202313423 0.12341363728046417 -0.01791379041969776 -52.228519439697266 38.61005401611328 -30.091602325439453 27.20888900756836 -30.411832809448242 -58.692405700683594 1.8788726329803467 -14.071174621582031 1.807458758354187 0.04079210013151169 -0.07769567519426346 0.03460367023944855 0.12017907947301865 -0.007162644527852535 -0.0582154206931591 -0.08593472838401794 -0.10520897060632706 -0.18802990019321442 -7.746269226074219 5.398944854736328 -0.4895431697368622 0.051082100719213486 -0.0415002666413784 0.16395831108093262 -2.9288876056671143 1.0005189180374146 -0.21513356268405914 -0.02535088360309601 -0.012193345464766026 -0.12319623678922653 -10.142797470092773 0.6814544796943665 0.014662597328424454 -0.04187014698982239 -0.017222421243786812 0.08555158227682114 -2.183177947998047 -0.7619097232818604 0.19129450619220734 -0.04087570309638977 0.005566167179495096 -0.08080027997493744 -27.677541732788086 -38.93712615966797 -23.129711151123047 -1.7840110063552856 64.99939727783203 2.7551164627075195 -4.729140281677246 -10.583024024963379 -10.32700252532959 -0.03773704543709755 0.06251934915781021 -0.12629683315753937 33.34039306640625 -38.27831268310547 26.47714614868164 1.7014217376708984 66.11470031738281 -2.9045825004577637 4.928639888763428 -10.372693061828613 13.419569969177246
0.015322889072688918 32.06383811519379 0.02434083319058171 49.875728607177734 77.47464752197266 -25.924381256103516 -1.9580109119415283 20.392074584960938 11.39155387878418 -1.6414998769760132 -12.448857307434082 2.2211954593658447 -0.6092410087585449 14.821651458740234 7.106185436248779 3.500462770462036 -25.857885360717773 14.841971397399902 -0.43821945786476135 0.1345149129629135 0.4358617663383484 0.1164739802479744 -0.09847980737686157 0.08544124662876129 -0.021748708561062813 0.15603476762771606 0.24300189316272736 14.986830711364746 51.45304489135742 45.890438079833984 -25.072193145751953 -43.15565490722656 93.41764068603516 -1.42854642868042 -14.944146156311035 -1.9025505781173706 -0.1824876070022583 0.18661370873451233 0.3083488345146179 0.46030035614967346 0.7066086530685425 0.9233484864234924 0.11473780870437622 0.09608716517686844 -0.27630165219306946 7.4335174560546875 5.617194652557373 0.2688428461551666 0.19111233949661255 -0.29830095171928406 0.1252279430627823 2.819450855255127 1.3814467191696167 0.10010453313589096 -0.7516216039657593 0.1304606795310974 -0.12314027547836304 10.088116645812988 0.8633137345314026 -0.44978323578834534 0.39282551407814026 0.17204996943473816 -0.33593517541885376 2.618597984313965 -0.642612636089325 -0.5636992454528809 0.3358307182788849 -0.3617725968360901 -0.4110182225704193 -46.60916519165039 25.223106384277344 -33.39289474487305 26.29927635192871 -41.94395065307617 -90.47429656982422 2.013612985610962 -32.99134063720703 6.147062301635742 -0.1186886727809906 -0.03651925548911095 0.2721247971057892 0.44338688254356384 0.7391576766967773 0.1869555562734604 -0.1150202602148056 -0.21536606550216675 0.2306188941001892 -8.16112232208252 5.535632610321045 -0.4100058674812317 -0.19921638071537018 -0.34019431471824646 0.4571434259414673 -3.3048343658447266 1.4360339641571045 0.21867735683918 -0.28351283073425293 -0.14773224294185638 -0.22132766246795654 -10.219622611999512 0.3806159198284149 -0.40060955286026 -0.03124828077852726 0.15546579658985138 0.20531940460205078 -2.711064100265503 -0.8733188509941101 0.356679767370224 0.13689371943473816 -0.04020243510603905 -0.24480189383029938 -41.90631103515625 -40.25188446044922 -37.83777618408203 -9.508214950561523 83.31953430175781 10.702698707580566 -5.600609302520752 -20.555461883544922 -12.70555305480957 0.20022158324718475 -0.4422537684440613 -0.17707684636116028 73.40118408203125 -53.094120025634766 61.87582015991211 151.76901245117188 87.93928527832031 -152.56690979003906 0.06227115914225578 -9.968631744384766 2.1074533462524414
0.9122408125988435 29.172858096148342 0.30735132227564677 -134.22938537597656 67.33560180664062 -169.42144775390625 -3.526045322418213 19.666471481323242 16.074905395507812 -4.56414270401001 -12.601543426513672 4.248770236968994 0.32651591300964355 13.687498092651367 12.878971099853516 -1.5796430110931396 -21.746408462524414 23.666337966918945 -0.18786446750164032 0.47935375571250916 -0.09524591267108917 -0.07461587339639664 -0.39532890915870667 0.21512271463871002 -0.031046977266669273 -0.1311953216791153 0.6226978302001953 -1.0016717910766602 55.270896911621094 64.3024673461914 -26.32026481628418 -43.829673767089844 96.43376159667969 -1.1190952062606812 0.40462005138397217 1.222474217414856 0.040276460349559784 0.3609909415245056 -0.5747151374816895 0.7845640182495117 0.49547523260116577 0.7358431220054626 -0.0627015084028244 0.6516735553741455 0.17984887957572937 6.745105743408203 5.885329723358154 0.7918755412101746 -0.14067642390727997 -0.1680070459842682 -0.691311240196228 2.5703928470611572 0.9274153113365173 -0.264983594417572 -0.5194634795188904 0.2487490475177765 -0.1730697751045227 10.023407936096191 1.1883268356323242 0.22687608003616333 0.8028168082237244 -0.2023400068283081 -0.07131940871477127 3.2650985717773438 0.18658879399299622 0.26678478717803955 0.3063221275806427 0.20577168464660645 -1.0743491649627686 -55.8355598449707 8.815801620483398 -19.909812927246094 25.49847412109375 -44.26902389526367 -97.27587890625 1.3754229545593262 -42.0283317565918 6.223997116088867 0.34325188398361206 0.46417558193206787 0.4764955937862396 0.9176703095436096 1.256670355796814 -0.22707784175872803 -0.9169408679008484 -0.24777787923812866 0.0411473847925663 -7.564900875091553 5.154534339904785 -0.29847291111946106 0.10378989577293396 -0.7075802087783813 -0.05562414973974228 -2.7693729400634766 1.606859564781189 0.13389556109905243 0.38651877641677856 0.36514100432395935 0.03075130470097065 -9.846508979797363 0.8363322615623474 -0.40502306818962097 -0.0711883082985878 -0.2051435261964798 0.7601426243782043 -2.4734644889831543 -1.213257908821106 0.02986167185008526 0.2016935497522354 -0.4587046504020691 -0.07344833761453629 -59.50706481933594 -45.04637908935547 -50.8260383605957 -164.66525268554688 84.45488739013672 167.56689453125 -3.8904178142547607 -25.938196182250977 -8.687263488769531 -0.628607988357544 -0.15558739006519318 -0.5620297193527222 94.670654296875 -55.120243072509766 80.4446029663086 175.21971130371094 75.98323059082031 -176.8235626220703 -2.9647252559661865 -15.279738426208496 -5.593595504760742
